<svg width="879" height="1466" viewBox="0 0 879 1466" fill="none" xmlns="http://www.w3.org/2000/svg">
<path d="M330.763 25.8967C330.763 25.8967 257.648 25.8967 261.73 81C262.92 97.0672 278.87 115.531 305.553 131.505C322.707 141.774 344.016 152.19 368.053 162.965C387.08 171.495 407.817 180.251 429.553 189.338C445.92 196.18 462.854 203.21 480.053 210.474C497.223 217.725 514.657 225.209 532.053 232.97C550.379 241.146 568.663 249.629 586.553 258.473C606.003 268.088 624.987 278.128 643.053 288.662C659.043 297.985 674.314 307.695 688.553 317.838C703.96 328.813 718.158 340.296 730.75 352.345C746.659 367.567 760.003 383.694 769.983 400.845C780.314 418.599 787.04 437.451 789.271 457.533C791.776 480.075 789.677 500.768 783.645 519.845C777.314 539.87 766.65 558.113 752.429 574.845C739.891 589.597 724.588 603.173 707.053 615.759" stroke="white" stroke-width="50.3855" stroke-linecap="round"/>
<circle cx="698.218" cy="615.988" r="41.988" transform="rotate(180 698.218 615.988)" fill="white"/>
</svg>
