<svg width="880" height="1466" viewBox="0 0 880 1466" fill="none" xmlns="http://www.w3.org/2000/svg">
<path d="M330.875 25.8967C330.875 25.8967 257.76 25.8967 261.842 81C263.033 97.0672 278.982 115.531 305.665 131.505C322.819 141.774 344.129 152.19 368.165 162.965C387.193 171.495 407.929 180.251 429.665 189.338C446.033 196.18 462.967 203.21 480.165 210.474C497.336 217.725 514.769 225.209 532.165 232.97C550.491 241.146 568.775 249.629 586.665 258.473C606.115 268.088 625.099 278.128 643.165 288.662C659.155 297.985 674.427 307.695 688.665 317.838C704.072 328.813 718.271 340.296 730.863 352.345C746.771 367.567 760.115 383.694 770.095 400.845C780.427 418.599 787.152 437.451 789.383 457.533C791.888 480.075 789.789 500.768 783.758 519.845C777.426 539.87 766.762 558.113 752.541 574.845C740.003 589.597 724.701 603.173 707.165 615.758C690.645 627.616 672.143 638.593 652.104 648.845C633.794 658.212 614.201 666.974 593.665 675.247C571.922 684.007 549.121 692.22 525.665 700.025C506.528 706.393 486.955 712.49 467.165 718.391C446.156 724.656 417.402 732.93 396.165 738.845C372.863 745.335 345.081 754.547 322.165 760.845C292.287 769.056 264.532 775.991 236.665 784.345C204.211 794.074 184.141 800.186 156.665 810.888C132.278 820.387 110.329 830.434 91.6653 841.322C69.8864 854.028 52.5803 867.881 41.0922 883.345C31.0722 896.833 25.4781 911.548 25.2027 927.798C24.8797 946.855 32.1817 964.468 45.6451 980.845C56.9381 994.582 72.566 1007.45 91.6653 1019.57C108.369 1030.17 127.729 1040.21 149.165 1049.75C168.312 1058.28 189.116 1066.41 211.165 1074.22C231.543 1081.43 252.985 1088.36 275.165 1095.05C297.05 1101.66 319.654 1108.04 342.665 1114.23C363.084 1119.72 383.823 1125.07 404.665 1130.3C422.802 1134.86 441.017 1139.33 459.165 1143.73C476.771 1148 494.315 1152.21 511.665 1156.37C530.447 1160.88 549.003 1165.33 567.165 1169.76C588.698 1175.02 609.678 1180.23 629.829 1185.44C650.404 1190.77 670.114 1196.09 688.665 1201.46C709.025 1207.36 727.989 1213.3 745.165 1219.36C763.98 1225.99 780.651 1232.75 794.665 1239.71C810.593 1247.63 826.412 1255.83 837.665 1268.15C847.989 1279.44 854.469 1294.19 853.665 1315.35C851.87 1332.36 844.906 1346.73 834.431 1358.85C823.09 1371.97 807.633 1382.46 790.165 1390.85C764.608 1403.13 734.744 1410.91 707.165 1415.83" stroke="#444444" stroke-width="50.3855" stroke-linecap="round"/>
</svg>
