<svg width="896" height="1466" viewBox="0 0 896 1466" fill="none" xmlns="http://www.w3.org/2000/svg">
<path d="M853.666 1315.35C854.469 1294.19 847.989 1279.44 837.666 1268.15C826.413 1255.83 810.594 1247.63 794.666 1239.71C780.652 1232.75 763.981 1225.99 745.166 1219.36C727.989 1213.3 709.026 1207.36 688.666 1201.46C670.115 1196.09 650.405 1190.77 629.83 1185.44C609.679 1180.23 588.698 1175.02 567.166 1169.76C549.003 1165.34 530.448 1160.88 511.666 1156.37C494.315 1152.21 476.772 1148 459.166 1143.73C441.017 1139.33 422.803 1134.86 404.666 1130.3C383.824 1125.07 363.084 1119.72 342.666 1114.23C319.655 1108.04 297.05 1101.66 275.166 1095.05C252.985 1088.36 231.544 1081.43 211.166 1074.22C189.116 1066.41 168.312 1058.28 149.166 1049.75C127.729 1040.21 108.37 1030.18 91.6658 1019.57C72.5665 1007.45 56.9386 994.582 45.6456 980.845C32.1821 964.468 24.8802 946.855 25.2032 927.798C25.4786 911.548 31.0726 896.833 41.0927 883.345C52.5808 867.881 69.8869 854.029 91.6658 841.323C110.33 830.434 132.279 820.387 156.666 810.888C184.141 800.186 204.211 794.074 236.666 784.345C264.532 775.992 292.288 769.057 322.166 760.845C345.082 754.547 372.863 745.335 396.166 738.845C417.403 732.93 446.157 724.656 467.166 718.391C486.956 712.49 506.529 706.393 525.666 700.025C549.122 692.22 571.923 684.007 593.666 675.247C614.202 666.974 633.794 658.212 652.104 648.845C672.143 638.593 690.645 627.616 707.166 615.759C724.701 603.173 740.004 589.597 752.542 574.845C766.763 558.114 777.427 539.87 783.758 519.845C789.79 500.768 791.889 480.075 789.384 457.533C787.153 437.451 780.427 418.6 770.096 400.845C760.116 383.694 746.771 367.568 730.863 352.345C718.271 340.296 704.073 328.813 688.666 317.838C674.427 307.695 659.156 297.985 643.166 288.662C625.099 278.128 606.115 268.088 586.666 258.473C568.776 249.629 550.492 241.146 532.166 232.97C514.77 225.209 497.336 217.725 480.166 210.474C462.967 203.21 446.033 196.18 429.666 189.338C407.93 180.251 387.193 171.495 368.166 162.965C344.129 152.19 322.819 141.774 305.666 131.505C278.982 115.531 263.033 97.0673 261.843 81.0001C257.761 25.8969 330.876 25.8969 330.876 25.8969" stroke="white" stroke-width="50.3855" stroke-linecap="round"/>
<circle cx="853.331" cy="1314.99" r="41.988" transform="rotate(180 853.331 1314.99)" fill="white"/>
</svg>
