<svg width="880" height="1466" viewBox="0 0 880 1466" fill="none" xmlns="http://www.w3.org/2000/svg">
<path d="M330.876 25.8967C330.876 25.8967 257.761 25.8967 261.843 81C263.033 97.0672 278.982 115.531 305.666 131.505C322.819 141.774 344.129 152.19 368.166 162.965C387.193 171.495 407.929 180.251 429.666 189.338C446.033 196.18 462.967 203.21 480.166 210.474C497.336 217.725 514.77 225.209 532.166 232.97C550.492 241.146 568.775 249.629 586.666 258.473C606.115 268.088 625.099 278.128 643.166 288.662C659.156 297.985 674.427 307.695 688.666 317.838C704.073 328.813 718.271 340.296 730.863 352.345C746.771 367.567 760.116 383.694 770.096 400.845C780.427 418.599 787.153 437.451 789.384 457.533C791.889 480.075 789.79 500.768 783.758 519.845C777.427 539.87 766.763 558.113 752.542 574.845C740.004 589.597 724.701 603.173 707.166 615.759C690.645 627.616 672.143 638.593 652.104 648.845C633.794 658.212 614.202 666.974 593.666 675.247C571.923 684.007 549.122 692.22 525.666 700.025C506.529 706.393 486.956 712.49 467.166 718.391C446.157 724.656 417.403 732.93 396.166 738.845C372.863 745.335 345.081 754.547 322.166 760.845C292.288 769.056 264.532 775.992 236.666 784.345C204.211 794.074 184.141 800.186 156.666 810.888C132.279 820.387 110.33 830.434 91.6658 841.323C69.8869 854.029 52.5807 867.881 41.0926 883.345C31.0726 896.833 25.4786 911.548 25.2031 927.798C24.8801 946.855 32.1821 964.468 45.6456 980.845C56.9385 994.582 72.5665 1007.45 91.6658 1019.57C108.37 1030.18 127.729 1040.21 149.166 1049.75C168.312 1058.28 189.116 1066.41 211.166 1074.22C231.543 1081.43 252.985 1088.36 275.166 1095.05C297.05 1101.66 319.654 1108.04 342.666 1114.23C363.084 1119.72 383.824 1125.07 404.666 1130.3C422.803 1134.86 441.017 1139.33 459.166 1143.73C476.772 1148 494.315 1152.21 511.666 1156.37C530.448 1160.88 549.003 1165.34 567.166 1169.76C588.698 1175.02 609.678 1180.23 629.83 1185.44C650.404 1190.77 670.115 1196.09 688.666 1201.46C709.026 1207.36 727.989 1213.3 745.166 1219.36" stroke="white" stroke-width="50.3855" stroke-linecap="round"/>
<circle cx="748.331" cy="1219.99" r="41.988" transform="rotate(180 748.331 1219.99)" fill="white"/>
</svg>
