<svg width="896" height="1466" viewBox="0 0 896 1466" fill="none" xmlns="http://www.w3.org/2000/svg">
<path d="M347.533 25.8967C347.533 25.8967 274.418 25.8967 278.5 81C279.69 97.0672 295.64 115.531 322.323 131.505C339.477 141.774 360.786 152.19 384.823 162.965C403.85 171.495 424.587 180.251 446.323 189.338C462.69 196.18 479.624 203.21 496.823 210.474C513.993 217.725 531.427 225.209 548.823 232.97C567.149 241.146 585.433 249.629 603.323 258.473C622.773 268.088 641.757 278.128 659.823 288.662C675.813 297.985 691.084 307.695 705.323 317.838C720.73 328.813 734.928 340.296 747.52 352.345C763.428 367.567 776.773 383.694 786.753 400.845C797.084 418.599 803.81 437.451 806.041 457.533C808.546 480.075 806.447 500.768 800.415 519.845C794.084 539.87 783.42 558.113 769.199 574.845C756.661 589.597 741.358 603.173 723.823 615.758C707.302 627.616 688.8 638.593 668.761 648.845C650.452 658.212 630.859 666.974 610.323 675.247C588.58 684.007 565.779 692.22 542.323 700.025C523.186 706.393 503.613 712.49 483.823 718.391C462.814 724.656 434.06 732.93 412.823 738.845C389.521 745.335 361.739 754.547 338.823 760.845C308.945 769.056 281.189 775.991 253.323 784.345C220.869 794.074 200.798 800.186 173.323 810.888C148.936 820.387 126.987 830.434 108.323 841.322C86.5441 854.028 69.238 867.881 57.7499 883.345" stroke="white" stroke-width="50.3855" stroke-linecap="round"/>
<circle cx="41.9879" cy="901.988" r="41.988" transform="rotate(180 41.9879 901.988)" fill="white"/>
</svg>
