<svg width="879" height="1466" viewBox="0 0 879 1466" fill="none" xmlns="http://www.w3.org/2000/svg">
<path d="M789.271 457.533C787.04 437.451 780.314 418.599 769.983 400.845C760.003 383.694 746.658 367.567 730.75 352.345C718.158 340.296 703.96 328.813 688.553 317.838C674.314 307.695 659.043 297.985 643.053 288.662C624.987 278.128 606.003 268.088 586.553 258.473C568.663 249.629 550.379 241.146 532.053 232.97C514.657 225.209 497.223 217.725 480.053 210.474C462.854 203.21 445.92 196.18 429.553 189.338C407.817 180.251 387.08 171.495 368.053 162.965C344.016 152.19 322.706 141.774 305.553 131.505C278.87 115.531 262.92 97.0672 261.73 81C257.648 25.8967 330.763 25.8967 330.763 25.8967" stroke="white" stroke-width="50.3855" stroke-linecap="round"/>
<circle cx="789.218" cy="478.988" r="41.988" transform="rotate(180 789.218 478.988)" fill="white"/>
</svg>
