<svg width="903" height="1466" viewBox="0 0 903 1466" fill="none" xmlns="http://www.w3.org/2000/svg">
<path d="M48.8604 927.798C49.1359 911.548 54.7299 896.833 64.7499 883.345C76.238 867.881 93.5441 854.028 115.323 841.322C133.987 830.434 155.936 820.387 180.323 810.888C207.798 800.186 227.869 794.074 260.323 784.345C288.189 775.991 315.945 769.056 345.823 760.845C368.739 754.547 396.521 745.335 419.823 738.845C441.06 732.93 469.814 724.656 490.823 718.391C510.613 712.49 530.186 706.393 549.323 700.025C572.779 692.22 595.58 684.007 617.323 675.247C637.859 666.974 657.452 658.212 675.761 648.845C695.8 638.593 714.302 627.616 730.823 615.759C748.358 603.173 763.661 589.597 776.199 574.845C790.42 558.113 801.084 539.87 807.415 519.845C813.447 500.768 815.546 480.075 813.041 457.533C810.81 437.451 804.084 418.599 793.753 400.845C783.773 383.694 770.428 367.567 754.52 352.345C741.928 340.296 727.73 328.813 712.323 317.838C698.084 307.695 682.813 297.985 666.823 288.662C648.757 278.128 629.773 268.088 610.323 258.473C592.433 249.629 574.149 241.146 555.823 232.97C538.427 225.209 520.993 217.725 503.823 210.474C486.624 203.21 469.69 196.18 453.323 189.338C431.587 180.251 410.85 171.495 391.823 162.965C367.786 152.19 346.477 141.774 329.323 131.505C302.64 115.531 286.69 97.0672 285.5 81C281.418 25.8967 354.533 25.8967 354.533 25.8967" stroke="white" stroke-width="50.3855" stroke-linecap="round"/>
<circle cx="41.988" cy="947.988" r="41.988" transform="rotate(180 41.988 947.988)" fill="white"/>
</svg>
