<svg width="120" height="122" viewBox="0 0 120 122" fill="none" xmlns="http://www.w3.org/2000/svg">
<path fill-rule="evenodd" clip-rule="evenodd" d="M59.7847 102.48C41.2191 102.48 25.4842 90.438 20.0596 73.7859C19.4879 72.031 17.9014 70.76 16.0556 70.76H3.87468C1.41053 70.76 -0.475594 72.9727 0.106197 75.3672C6.60725 102.124 30.8598 122 59.7847 122C88.7091 122 112.962 102.124 119.463 75.3672C120.045 72.9727 118.158 70.76 115.694 70.76H103.513C101.668 70.76 100.081 72.031 99.5093 73.7859C94.0848 90.438 78.3498 102.48 59.7847 102.48ZM59.7847 0C88.7091 0 112.962 19.8762 119.463 46.6328C120.045 49.0273 118.158 51.24 115.694 51.24H103.513C101.668 51.24 100.081 49.969 99.5093 48.2141C94.0848 31.562 78.3498 19.52 59.7847 19.52C41.2191 19.52 25.4842 31.562 20.0596 48.2141C19.4879 49.969 17.9014 51.24 16.0556 51.24H3.87467C1.41052 51.24 -0.475596 49.0273 0.106192 46.6328C6.60724 19.8762 30.8598 0 59.7847 0Z" fill="white"/>
</svg>
