<svg width="24" height="24" viewBox="0 0 24 24" fill="none" xmlns="http://www.w3.org/2000/svg">
<path d="M14.5001 5.99995C14.4996 5.43245 14.3782 4.87156 14.1442 4.35455C13.9102 3.83753 13.5689 3.37623 13.1429 3.00128C12.7169 2.62634 12.216 2.34633 11.6734 2.17986C11.1309 2.0134 10.5592 1.96428 9.99617 2.03578C9.43319 2.10728 8.89186 2.29775 8.40816 2.59456C7.92445 2.89136 7.50944 3.28768 7.19068 3.75722C6.87193 4.22675 6.65674 4.75873 6.5594 5.31782C6.46206 5.87692 6.4848 6.45032 6.62612 6.99995M6.62612 6.99995C6.67045 7.17162 6.72545 7.33829 6.79112 7.49995L6.62612 6.99995ZM11.0001 21.5C8.63712 20.6165 6.66662 17.5925 5.68012 15.8215C5.25412 15.0565 5.47862 14.1175 6.16212 13.5705C6.53012 13.2762 6.99369 13.1279 7.46415 13.154C7.93461 13.1802 8.37893 13.3788 8.71212 13.712L9.50012 14.5V8.74995C9.50012 8.41843 9.63182 8.10049 9.86624 7.86607C10.1007 7.63165 10.4186 7.49995 10.7501 7.49995C11.0816 7.49995 11.3996 7.63165 11.634 7.86607C11.8684 8.10049 12.0001 8.41843 12.0001 8.74995V11.75C12.0001 11.4184 12.1318 11.1005 12.3662 10.8661C12.6007 10.6316 12.9186 10.5 13.2501 10.5C13.5816 10.5 13.8996 10.6316 14.134 10.8661C14.3684 11.1005 14.5001 11.4184 14.5001 11.75V12.75C14.5001 12.4184 14.6318 12.1005 14.8662 11.8661C15.1007 11.6316 15.4186 11.5 15.7501 11.5C16.0816 11.5 16.3996 11.6316 16.634 11.8661C16.8684 12.1005 17.0001 12.4184 17.0001 12.75V13.75C17.0001 13.4184 17.1318 13.1005 17.3662 12.8661C17.6007 12.6316 17.9186 12.5 18.2501 12.5C18.5816 12.5 18.8996 12.6316 19.134 12.8661C19.3684 13.1005 19.5001 13.4184 19.5001 13.75V17.684C19.5001 18.219 19.3676 18.748 19.0591 19.1855C18.5476 19.91 17.6281 21.017 16.5001 21.5C14.7501 22.25 13.1851 22.317 11.0001 21.5Z" stroke="white" stroke-linecap="round" stroke-linejoin="round"/>
</svg>
