<svg width="454" height="280" viewBox="0 0 454 280" fill="none" xmlns="http://www.w3.org/2000/svg">
<path d="M247.295 152.293C248.412 154.053 248.082 156.348 246.645 157.858C242.067 162.669 237.931 168.941 234.239 176.673C229.767 185.896 227.058 196.718 226.11 209.139C225.222 219.983 226.096 229.708 228.732 238.315C229.356 240.353 228.621 242.596 226.821 243.739C225.056 244.859 222.762 244.607 221.201 243.217C214.589 237.334 206.866 232.526 198.031 228.794C187.849 224.523 177.4 222.188 166.685 221.788C157.161 221.463 148.612 222.516 141.04 224.946C139.057 225.582 136.856 224.877 135.739 223.118C134.611 221.34 134.931 219.02 136.381 217.492C139.656 214.043 142.673 209.985 145.433 205.32C148.81 199.508 151.532 193.094 153.599 186.076C155.507 179.023 156.673 171.762 157.096 164.294C157.593 154.569 156.606 145.63 154.134 137.477C153.527 135.477 154.259 133.285 156.024 132.165C157.815 131.028 160.146 131.329 161.716 132.755C165.708 136.384 170.521 139.673 176.151 142.622C183.009 146.15 190.25 148.89 197.875 150.844C205.403 152.859 212.62 153.848 219.526 153.813C228.112 153.763 235.595 152.666 241.974 150.519C243.953 149.853 246.177 150.531 247.295 152.293Z" fill="#1C1C1C"/>
<path fill-rule="evenodd" clip-rule="evenodd" d="M317.657 140H310.443V171.943L298.477 142.326L291.788 145.028L304.064 175.413L280.892 152.24L275.79 157.342L298 179.551L269.218 166.976L266.33 173.587L296.784 186.893H263.55V194.107H296.784L266.33 207.413L269.218 214.024L298 201.449L275.79 223.658L280.892 228.759L304.064 205.587L291.788 235.972L298.477 238.674L310.443 209.057V241H317.657V209.057L329.623 238.674L336.312 235.972L324.036 205.587L347.208 228.759L352.309 223.658L330.1 201.449L358.882 214.024L361.77 207.413L331.316 194.107H364.55V186.893H331.315L361.77 173.587L358.882 166.976L330.1 179.551L352.309 157.342L347.208 152.24L324.036 175.413L336.312 145.028L329.623 142.326L317.657 171.943V140Z" fill="#1C1C1C"/>
<path fill-rule="evenodd" clip-rule="evenodd" d="M95.836 26.8791L88.8773 4.65979L44.4387 18.5773C19.8961 26.2636 6.23107 52.3906 13.9175 76.9334C21.6038 101.476 47.731 115.141 72.2736 107.455L116.712 93.5371L109.754 71.3178C105.91 59.0465 92.8468 52.214 80.5755 56.0572C92.8468 52.214 99.6792 39.1505 95.836 26.8791Z" fill="#1C1C1C"/>
<path fill-rule="evenodd" clip-rule="evenodd" d="M413.68 78.6104C409.044 86.3378 403.437 89.8202 398.326 89.8202C393.216 89.8202 387.609 86.3378 382.973 78.6104C378.405 70.9971 375.394 60.1093 375.394 47.7767C375.394 35.444 378.405 24.5564 382.973 16.9432C387.609 9.21589 393.216 5.7332 398.326 5.7332C403.437 5.7332 409.044 9.21589 413.68 16.9432C418.248 24.5564 421.259 35.444 421.259 47.7767C421.259 60.1093 418.248 70.9971 413.68 78.6104ZM446.103 47.7767C446.103 21.3903 424.713 0 398.326 0C371.94 0 350.55 21.3903 350.55 47.7767C350.55 74.1628 371.94 95.5534 398.326 95.5534C424.713 95.5534 446.103 74.1628 446.103 47.7767ZM356.283 47.7767C356.283 64.9429 366.571 79.7059 381.317 86.2369C374.246 77.5363 369.66 63.5492 369.66 47.7767C369.66 32.0043 374.246 18.017 381.317 9.31622C366.571 15.8476 356.283 30.6107 356.283 47.7767ZM440.37 47.7767C440.37 64.9429 430.082 79.7059 415.336 86.2369C422.407 77.5363 426.992 63.5492 426.992 47.7767C426.992 32.0043 422.407 18.017 415.336 9.31622C430.082 15.8476 440.37 30.6107 440.37 47.7767ZM398.326 53.0321C401.229 53.0321 403.582 50.6791 403.582 47.7767C403.582 44.8742 401.229 42.5213 398.326 42.5213C395.424 42.5213 393.071 44.8742 393.071 47.7767C393.071 50.6791 395.424 53.0321 398.326 53.0321Z" fill="#1C1C1C"/>
<path fill-rule="evenodd" clip-rule="evenodd" d="M174.217 99.7538C182.101 87.7074 178.726 71.5507 166.68 63.6669C178.726 71.5507 194.883 68.1762 202.767 56.1299C194.883 68.1762 198.257 84.333 210.304 92.2168C198.257 84.333 182.101 87.7074 174.217 99.7538ZM174.217 99.7538C166.333 111.8 169.707 127.957 181.754 135.841C193.8 143.724 209.957 140.35 217.841 128.304C225.724 116.257 222.35 100.101 210.304 92.2168C222.35 100.101 238.507 96.7261 246.39 84.6797C254.274 72.6334 250.9 56.4766 238.853 48.5928C226.807 40.7091 210.65 44.0836 202.767 56.1299C210.65 44.0836 207.276 27.9268 195.23 20.043C183.183 12.1592 167.026 15.5337 159.143 27.58C151.259 39.6263 154.633 55.7831 166.68 63.6669C154.633 55.7831 138.477 59.1576 130.593 71.204C122.709 83.2504 126.083 99.407 138.13 107.291C150.176 115.175 166.333 111.8 174.217 99.7538Z" fill="#1C1C1C"/>
<path fill-rule="evenodd" clip-rule="evenodd" d="M383.493 132.943C379.406 137.03 377.93 142.74 379.065 147.999C374.543 150.915 371.55 155.996 371.55 161.777C371.55 167.557 374.543 172.638 379.065 175.554C377.93 180.813 379.406 186.523 383.493 190.61C387.58 194.697 393.29 196.173 398.549 195.039C401.465 199.56 406.546 202.553 412.326 202.553C418.107 202.553 423.188 199.56 426.104 195.039C431.363 196.173 437.073 194.697 441.16 190.61C445.247 186.523 446.723 180.813 445.588 175.554C450.11 172.638 453.103 167.557 453.103 161.777C453.103 155.996 450.11 150.915 445.588 147.999C446.723 142.74 445.247 137.03 441.16 132.943C437.073 128.856 431.363 127.38 426.104 128.515C423.188 123.994 418.107 121 412.326 121C406.546 121 401.465 123.994 398.549 128.515C393.29 127.38 387.58 128.856 383.493 132.943Z" fill="#1C1C1C"/>
<path fill-rule="evenodd" clip-rule="evenodd" d="M278.517 54.0416L257.845 57.7397L261.543 78.4115C263.426 88.9384 272.85 96.2199 283.257 95.6898C273.145 98.6942 266.69 108.884 268.591 119.513L272.289 140.185L292.961 136.486C303.488 134.603 310.77 125.18 310.24 114.773C313.244 124.885 323.434 131.34 334.063 129.438L354.734 125.74L351.036 105.068C349.153 94.5413 339.73 87.2599 329.322 87.7901C339.435 84.7857 345.889 74.5956 343.988 63.9671L340.29 43.2953L319.618 46.9935C309.091 48.8767 301.81 58.2998 302.34 68.7071C299.335 58.5952 289.145 52.1402 278.517 54.0416Z" fill="#1C1C1C"/>
<path fill-rule="evenodd" clip-rule="evenodd" d="M82.5498 225C112.925 225 137.55 200.375 137.55 170C137.55 139.624 112.925 115 82.5498 115C52.1741 115 27.5498 139.624 27.5498 170C27.5498 200.375 52.1741 225 82.5498 225ZM82.5498 218.4C109.28 218.4 130.95 196.731 130.95 170C130.95 143.269 109.28 121.6 82.5498 121.6C55.8192 121.6 34.1498 143.269 34.1498 170C34.1498 196.731 55.8192 218.4 82.5498 218.4ZM82.5498 211.8C105.635 211.8 124.35 193.086 124.35 170C124.35 146.915 105.635 128.2 82.5498 128.2C59.4643 128.2 40.7498 146.915 40.7498 170C40.7498 193.086 59.4643 211.8 82.5498 211.8ZM82.5498 205.2C101.99 205.2 117.75 189.44 117.75 170C117.75 150.56 101.99 134.8 82.5498 134.8C63.1094 134.8 47.3498 150.56 47.3498 170C47.3498 189.44 63.1094 205.2 82.5498 205.2ZM111.15 170C111.15 185.795 98.3452 198.6 82.5498 198.6C66.7544 198.6 53.9498 185.795 53.9498 170C53.9498 154.205 66.7544 141.4 82.5498 141.4C98.3452 141.4 111.15 154.205 111.15 170ZM104.55 170C104.55 182.15 94.6998 192 82.5498 192C70.3995 192 60.5498 182.15 60.5498 170C60.5498 157.85 70.3995 148 82.5498 148C94.6998 148 104.55 157.85 104.55 170Z" fill="#1C1C1C"/>
</svg>
